<svg width="1600" height="900" viewBox="0 0 1600 900" fill="none" xmlns="http://www.w3.org/2000/svg">
  <rect width="1600" height="900" fill="#17202B"/>
  <rect width="1600" height="900" fill="url(#paint0_linear)"/>
  <rect y="470" width="1600" height="430" fill="url(#paint1_linear)"/>
  <g opacity="0.42">
    <rect x="1120" y="118" width="72" height="268" fill="#56606D"/>
    <rect x="1215" y="64" width="26" height="326" fill="#46515F"/>
    <rect x="1282" y="92" width="28" height="298" fill="#56606D"/>
    <rect x="1342" y="142" width="60" height="250" fill="#56606D"/>
  </g>
  <g opacity="0.2">
    <rect x="64" y="214" width="104" height="38" fill="#C6C0A4"/>
    <rect x="182" y="214" width="84" height="38" fill="#C6C0A4"/>
    <rect x="286" y="214" width="92" height="38" fill="#C6C0A4"/>
    <rect x="64" y="266" width="314" height="18" fill="#ACA58A"/>
  </g>
  <g opacity="0.24">
    <rect x="442" y="198" width="116" height="96" rx="12" fill="#D8D3BC"/>
    <rect x="582" y="178" width="84" height="116" rx="12" fill="#C9C3AA"/>
    <rect x="684" y="186" width="72" height="108" rx="12" fill="#D8D3BC"/>
  </g>
  <path d="M0 410H1600" stroke="#8B7A4B" stroke-opacity="0.4" stroke-width="2"/>
  <g opacity="0.88">
    <ellipse cx="280" cy="548" rx="208" ry="116" fill="url(#paint2_linear)"/>
    <ellipse cx="280" cy="538" rx="214" ry="122" stroke="#B89229" stroke-width="8"/>
    <ellipse cx="280" cy="538" rx="214" ry="122" stroke="#E3C24A" stroke-opacity="0.38" stroke-width="2"/>
    <ellipse cx="280" cy="538" rx="184" ry="98" fill="#282B2F"/>
    <ellipse cx="280" cy="538" rx="184" ry="98" stroke="#3A3D42" stroke-width="5"/>
  </g>
  <g opacity="0.96">
    <ellipse cx="726" cy="470" rx="200" ry="108" fill="url(#paint3_linear)"/>
    <ellipse cx="726" cy="460" rx="206" ry="114" stroke="#B89229" stroke-width="8"/>
    <ellipse cx="726" cy="460" rx="176" ry="90" fill="#2A2D31"/>
    <ellipse cx="726" cy="460" rx="176" ry="90" stroke="#40444B" stroke-width="5"/>
  </g>
  <g opacity="0.94">
    <ellipse cx="1014" cy="608" rx="242" ry="140" fill="url(#paint4_linear)"/>
    <ellipse cx="1014" cy="596" rx="248" ry="146" stroke="#B89229" stroke-width="8"/>
    <ellipse cx="1014" cy="596" rx="212" ry="116" fill="#BBC4C7"/>
    <ellipse cx="1014" cy="596" rx="212" ry="116" stroke="#D9E0E1" stroke-width="5"/>
  </g>
  <g opacity="0.76">
    <ellipse cx="1332" cy="452" rx="154" ry="92" fill="url(#paint5_linear)"/>
    <ellipse cx="1332" cy="444" rx="158" ry="96" stroke="#C7D2D5" stroke-width="6"/>
    <ellipse cx="1332" cy="444" rx="134" ry="74" fill="#D2DADC"/>
  </g>
  <g opacity="0.82">
    <ellipse cx="1452" cy="604" rx="130" ry="88" fill="url(#paint6_linear)"/>
    <ellipse cx="1452" cy="598" rx="134" ry="92" stroke="#C6CFD1" stroke-width="6"/>
    <ellipse cx="1452" cy="598" rx="116" ry="74" fill="#2E3238"/>
  </g>
  <g opacity="0.64">
    <path d="M0 782C204 712 432 716 688 740C944 764 1188 750 1600 706V900H0V782Z" fill="#20262E"/>
    <path d="M0 790C210 724 430 724 688 748C948 772 1210 758 1600 716" stroke="#2D353F" stroke-width="10"/>
  </g>
  <g opacity="0.9">
    <path d="M0 840H1600" stroke="#7D0F16" stroke-width="5"/>
    <path d="M0 854H1600" stroke="#E0B73E" stroke-width="5"/>
    <path d="M0 870H1600" stroke="#485360" stroke-width="7"/>
  </g>
  <g opacity="0.82">
    <path d="M1112 516H1580" stroke="#515E69" stroke-width="12"/>
    <path d="M1112 542H1580" stroke="#C9D1D2" stroke-width="10"/>
    <path d="M1112 568H1580" stroke="#3B4652" stroke-width="10"/>
  </g>
  <defs>
    <linearGradient id="paint0_linear" x1="800" y1="0" x2="800" y2="900" gradientUnits="userSpaceOnUse">
      <stop stop-color="#3A3630"/>
      <stop offset="0.52" stop-color="#2A313A"/>
      <stop offset="1" stop-color="#121820"/>
    </linearGradient>
    <linearGradient id="paint1_linear" x1="800" y1="470" x2="800" y2="900" gradientUnits="userSpaceOnUse">
      <stop stop-color="#2B2E33"/>
      <stop offset="1" stop-color="#191C21"/>
    </linearGradient>
    <linearGradient id="paint2_linear" x1="280" y1="432" x2="280" y2="664" gradientUnits="userSpaceOnUse">
      <stop stop-color="#111317"/>
      <stop offset="1" stop-color="#22262C"/>
    </linearGradient>
    <linearGradient id="paint3_linear" x1="726" y1="362" x2="726" y2="578" gradientUnits="userSpaceOnUse">
      <stop stop-color="#20242A"/>
      <stop offset="1" stop-color="#111419"/>
    </linearGradient>
    <linearGradient id="paint4_linear" x1="1014" y1="468" x2="1014" y2="748" gradientUnits="userSpaceOnUse">
      <stop stop-color="#E9ECEC"/>
      <stop offset="1" stop-color="#899399"/>
    </linearGradient>
    <linearGradient id="paint5_linear" x1="1332" y1="360" x2="1332" y2="544" gradientUnits="userSpaceOnUse">
      <stop stop-color="#EEF1F2"/>
      <stop offset="1" stop-color="#BBC4C8"/>
    </linearGradient>
    <linearGradient id="paint6_linear" x1="1452" y1="516" x2="1452" y2="692" gradientUnits="userSpaceOnUse">
      <stop stop-color="#262A2F"/>
      <stop offset="1" stop-color="#171A1E"/>
    </linearGradient>
  </defs>
</svg>
